<?xml version="1.0" standalone="no"?>
<!DOCTYPE svg PUBLIC "-//W3C//DTD SVG 20010904//EN"
 "http://www.w3.org/TR/2001/REC-SVG-20010904/DTD/svg10.dtd">
<svg version="1.0" xmlns="http://www.w3.org/2000/svg"
 width="256.000000pt" height="256.000000pt" viewBox="0 0 256.000000 256.000000"
 preserveAspectRatio="xMidYMid meet">
<metadata>
Created by potrace 1.11, written by Peter Selinger 2001-2013
</metadata>
<g transform="translate(0.000000,256.000000) scale(0.100000,-0.100000)"
fill="#000000" stroke="none">
<path d="M0 1280 l0 -1280 1280 0 1280 0 0 1280 0 1280 -1280 0 -1280 0 0
-1280z m1404 495 c96 -25 167 -66 236 -135 159 -159 194 -379 92 -588 -35 -73
-140 -178 -212 -214 -206 -102 -432 -66 -590 92 -159 159 -194 379 -92 588 34
72 140 178 212 214 114 57 242 72 354 43z"/>
</g>
</svg>
